<mxfile host="app.diagrams.net" agent="Mozilla/5.0 (Windows NT 10.0; Win64; x64) AppleWebKit/537.36 (KHTML, like Gecko) Chrome/140.0.0.0 Safari/537.36 Edg/140.0.0.0" version="28.2.1">
  <diagram id="hZk4xStNrvhKDO4lnjjT" name="ページ1">
    <mxGraphModel dx="915" dy="541" grid="1" gridSize="10" guides="1" tooltips="1" connect="1" arrows="1" fold="1" page="1" pageScale="1" pageWidth="827" pageHeight="1169" math="0" shadow="0">
      <root>
        <mxCell id="0" />
        <mxCell id="1" parent="0" />
        <mxCell id="_d83yrIg-gfraXVirwHY-2" value="学生&lt;div&gt;&lt;br&gt;&lt;/div&gt;" style="shape=umlActor;verticalLabelPosition=bottom;verticalAlign=top;html=1;outlineConnect=0;" vertex="1" parent="1">
          <mxGeometry x="190" y="180" width="50" height="90" as="geometry" />
        </mxCell>
        <mxCell id="_d83yrIg-gfraXVirwHY-3" value="メニュー&lt;div&gt;画面&lt;/div&gt;" style="shape=umlBoundary;whiteSpace=wrap;html=1;" vertex="1" parent="1">
          <mxGeometry x="350" y="160" width="90" height="70" as="geometry" />
        </mxCell>
        <mxCell id="_d83yrIg-gfraXVirwHY-4" value="" style="endArrow=classic;html=1;rounded=0;entryX=-0.044;entryY=0.552;entryDx=0;entryDy=0;entryPerimeter=0;" edge="1" parent="1" target="_d83yrIg-gfraXVirwHY-3">
          <mxGeometry width="50" height="50" relative="1" as="geometry">
            <mxPoint x="250" y="230" as="sourcePoint" />
            <mxPoint x="300" y="180" as="targetPoint" />
          </mxGeometry>
        </mxCell>
        <mxCell id="_d83yrIg-gfraXVirwHY-5" value="表示" style="ellipse;shape=umlControl;whiteSpace=wrap;html=1;" vertex="1" parent="1">
          <mxGeometry x="540" y="160" width="70" height="80" as="geometry" />
        </mxCell>
        <mxCell id="_d83yrIg-gfraXVirwHY-6" value="" style="endArrow=classic;html=1;rounded=0;entryX=-0.019;entryY=0.583;entryDx=0;entryDy=0;entryPerimeter=0;exitX=1.03;exitY=0.476;exitDx=0;exitDy=0;exitPerimeter=0;" edge="1" parent="1" source="_d83yrIg-gfraXVirwHY-3" target="_d83yrIg-gfraXVirwHY-5">
          <mxGeometry width="50" height="50" relative="1" as="geometry">
            <mxPoint x="440" y="200" as="sourcePoint" />
            <mxPoint x="540" y="220" as="targetPoint" />
          </mxGeometry>
        </mxCell>
        <mxCell id="_d83yrIg-gfraXVirwHY-7" value="学生登録&lt;div&gt;画面&lt;/div&gt;" style="shape=umlBoundary;whiteSpace=wrap;html=1;" vertex="1" parent="1">
          <mxGeometry x="350" y="280" width="90" height="70" as="geometry" />
        </mxCell>
        <mxCell id="_d83yrIg-gfraXVirwHY-8" value="学生登録" style="ellipse;shape=umlControl;whiteSpace=wrap;html=1;" vertex="1" parent="1">
          <mxGeometry x="540" y="270" width="70" height="80" as="geometry" />
        </mxCell>
        <mxCell id="_d83yrIg-gfraXVirwHY-9" value="" style="endArrow=classic;html=1;rounded=0;entryX=0;entryY=0.571;entryDx=0;entryDy=0;entryPerimeter=0;" edge="1" parent="1" source="_d83yrIg-gfraXVirwHY-2" target="_d83yrIg-gfraXVirwHY-7">
          <mxGeometry width="50" height="50" relative="1" as="geometry">
            <mxPoint x="280" y="321" as="sourcePoint" />
            <mxPoint x="376" y="290" as="targetPoint" />
          </mxGeometry>
        </mxCell>
        <mxCell id="_d83yrIg-gfraXVirwHY-10" value="" style="endArrow=classic;html=1;rounded=0;entryX=0;entryY=0.567;entryDx=0;entryDy=0;entryPerimeter=0;exitX=1.007;exitY=0.505;exitDx=0;exitDy=0;exitPerimeter=0;" edge="1" parent="1" source="_d83yrIg-gfraXVirwHY-7" target="_d83yrIg-gfraXVirwHY-8">
          <mxGeometry width="50" height="50" relative="1" as="geometry">
            <mxPoint x="300" y="451" as="sourcePoint" />
            <mxPoint x="396" y="420" as="targetPoint" />
          </mxGeometry>
        </mxCell>
        <mxCell id="_d83yrIg-gfraXVirwHY-11" value="" style="endArrow=classic;html=1;rounded=0;exitX=0;exitY=0.75;exitDx=0;exitDy=0;exitPerimeter=0;" edge="1" parent="1" source="_d83yrIg-gfraXVirwHY-5">
          <mxGeometry width="50" height="50" relative="1" as="geometry">
            <mxPoint x="250" y="391" as="sourcePoint" />
            <mxPoint x="440" y="300" as="targetPoint" />
          </mxGeometry>
        </mxCell>
        <mxCell id="_d83yrIg-gfraXVirwHY-12" value="学生オブジェクト" style="ellipse;shape=umlEntity;whiteSpace=wrap;html=1;" vertex="1" parent="1">
          <mxGeometry x="680" y="220" width="70" height="70" as="geometry" />
        </mxCell>
        <mxCell id="_d83yrIg-gfraXVirwHY-13" value="" style="endArrow=block;startArrow=block;endFill=1;startFill=1;html=1;rounded=0;entryX=0;entryY=0.5;entryDx=0;entryDy=0;exitX=1;exitY=0.5;exitDx=0;exitDy=0;exitPerimeter=0;" edge="1" parent="1" source="_d83yrIg-gfraXVirwHY-8" target="_d83yrIg-gfraXVirwHY-12">
          <mxGeometry width="160" relative="1" as="geometry">
            <mxPoint x="620" y="310" as="sourcePoint" />
            <mxPoint x="480" y="240" as="targetPoint" />
          </mxGeometry>
        </mxCell>
        <mxCell id="_d83yrIg-gfraXVirwHY-14" value="メニュー画面をクリックする" style="text;html=1;align=center;verticalAlign=middle;whiteSpace=wrap;rounded=0;" vertex="1" parent="1">
          <mxGeometry x="250" y="170" width="90" height="30" as="geometry" />
        </mxCell>
        <mxCell id="_d83yrIg-gfraXVirwHY-15" value="学生情報を入力する" style="text;html=1;align=center;verticalAlign=middle;whiteSpace=wrap;rounded=0;" vertex="1" parent="1">
          <mxGeometry x="230" y="295" width="70" height="30" as="geometry" />
        </mxCell>
        <mxCell id="_d83yrIg-gfraXVirwHY-16" value="&lt;b&gt;&lt;font style=&quot;font-size: 17px;&quot;&gt;①境界オブジェクト&lt;/font&gt;&lt;/b&gt;&lt;div&gt;&lt;b&gt;&lt;font style=&quot;font-size: 17px;&quot;&gt;②制御オブジェクト&lt;/font&gt;&lt;/b&gt;&lt;/div&gt;&lt;div&gt;&lt;b&gt;&lt;font style=&quot;font-size: 17px;&quot;&gt;③実体オブジェクト&lt;/font&gt;&lt;/b&gt;&lt;/div&gt;" style="text;html=1;align=center;verticalAlign=middle;whiteSpace=wrap;rounded=0;" vertex="1" parent="1">
          <mxGeometry x="125" y="410" width="180" height="70" as="geometry" />
        </mxCell>
        <mxCell id="_d83yrIg-gfraXVirwHY-17" value="&lt;div style=&quot;text-align: left;&quot;&gt;&lt;span style=&quot;background-color: transparent; color: light-dark(rgb(0, 0, 0), rgb(255, 255, 255));&quot;&gt;・登録の成功、失敗&lt;/span&gt;&lt;/div&gt;&lt;div&gt;・すでに存在する学生かもしれない&lt;/div&gt;" style="text;html=1;align=center;verticalAlign=middle;whiteSpace=wrap;rounded=0;" vertex="1" parent="1">
          <mxGeometry x="615" y="310" width="200" height="40" as="geometry" />
        </mxCell>
      </root>
    </mxGraphModel>
  </diagram>
</mxfile>
